Coordinates
version=1
nRows=7
nColumns=42
inDegrees=yes

Units are S.I. units (second, meters, Newtons, ...)
If the header above contains a line with 'inDegrees', this indicates whether rotational values are in degrees (yes) or radians (no).

endheader
time	pelvis_tilt	pelvis_list	pelvis_rotation	pelvis_tx	pelvis_ty	pelvis_tz	hip_flexion_r	hip_adduction_r	hip_rotation_r	knee_angle_r	knee_adduction_r	knee_angle_r_beta	ankle_angle_r	subtalar_angle_r	mtp_angle_r	hip_flexion_l	hip_adduction_l	hip_rotation_l	knee_angle_l	knee_adduction_l	knee_angle_l_beta	ankle_angle_l	subtalar_angle_l	mtp_angle_l	lumbar_extension	lumbar_bending	lumbar_rotation	arm_flex_r	arm_add_r	arm_rot_r	elbow_flex_r	pro_sup_r	wrist_flex_r	wrist_dev_r	arm_flex_l	arm_add_l	arm_rot_l	elbow_flex_l	pro_sup_l	wrist_flex_l	wrist_dev_l
      1.28000000	      8.71966881	      0.55431526	      1.78715530	      0.89687634	      0.84069912	     -0.26741957	    -10.62514230	      0.30292378	    -17.99167474	     11.05854208	      1.55523399	      0.19300797	     19.16125147	     14.73838124	     -7.50882127	     15.10824343	     -4.74540056	     -9.77244809	     57.59778438	     -1.24293091	      1.00527098	     11.57373821	    -12.80889315	     -7.50882127	    -22.38086000	     -0.14326280	      3.83799486	      4.82718520	    -15.58180098	     -6.60304033	     35.99252528	     90.00000001	      0.00000000	      0.00000000	     -2.15474518	     -9.82402699	    -21.82933977	     37.99423828	     90.00000001	      0.00000000	      0.00000000
      1.29000000	      9.09425039	      1.41569074	      1.10600482	      0.91167179	      0.84135104	     -0.26651221	    -13.19079137	     -0.64459471	    -17.30601676	      9.10601580	      2.12883519	      0.15892996	     19.38104481	     15.58917867	     -7.50845398	     15.35810989	     -3.55324639	    -10.84413347	     53.84379659	     -0.87519716	      0.93975153	     11.74203808	    -13.40011698	     -7.50845398	    -22.75043065	     -1.42157072	      4.80064798	      4.83447348	    -15.95016470	     -5.75558262	     36.60246089	     90.00000001	      0.00000000	      0.00000000	     -2.30395671	     -9.77210572	    -24.30638728	     36.79871037	     90.00000001	      0.00000000	      0.00000000
      1.30000000	      9.01100636	      1.67208625	      0.57189665	      0.92618598	      0.84064711	     -0.26559308	    -14.78074647	     -0.96356414	    -17.29358317	      8.00289017	      2.50024816	      0.13967678	     19.46369377	     15.74197840	     -7.50806188	     16.28877928	     -3.13566042	    -11.77679996	     50.28567255	     -0.54265461	      0.87765055	     11.79835545	    -13.73492741	     -7.50806188	    -22.59521076	     -2.00885756	      5.70027133	      5.00798938	    -16.33214338	     -5.02779036	     37.07384651	     90.00000001	      0.00000000	      0.00000000	     -2.88676243	     -9.76102984	    -26.28160696	     36.06890837	     90.00000001	      0.00000000	      0.00000000
      1.31000000	      8.89998708	      1.79214441	      0.10336240	      0.94066578	      0.83945266	     -0.26470992	    -16.23254708	     -1.12044149	    -17.42840322	      7.08955402	      2.80218654	      0.12373606	     19.56821728	     15.81389649	     -7.50745645	     17.14793976	     -2.90176852	    -12.78887341	     46.52740569	     -0.28467848	      0.81205642	     11.88913021	    -13.81724201	     -7.50745645	    -22.41433296	     -2.43615262	      6.56975609	      5.19579994	    -16.77609772	     -4.23928974	     37.49006408	     90.00000001	      0.00000000	      0.00000000	     -3.42546139	     -9.76052682	    -28.46363085	     35.38758957	     90.00000001	      0.00000000	      0.00000000
      1.32000000	      8.83075099	      1.83914634	     -0.29966420	      0.95528978	      0.83790098	     -0.26391413	    -17.64372409	     -1.17539176	    -17.84760385	      6.36461551	      3.00370975	      0.11108350	     19.78960388	     16.25014229	     -7.50704538	     17.80759107	     -2.74898268	    -13.91727766	     42.54587412	     -0.11365129	      0.74256559	     12.13045742	    -13.32144229	     -7.50704538	    -22.26449219	     -2.75355060	      7.39331485	      5.38015650	    -17.18837164	     -3.70215751	     37.93854681	     90.00000001	      0.00000000	      0.00000000	     -4.03216566	     -9.86020046	    -30.21797741	     34.75804671	     90.00000001	      0.00000000	      0.00000000
      1.33000000	      8.71803743	      1.78258744	     -0.68747210	      0.96984729	      0.83595466	     -0.26333362	    -18.87478518	     -1.16000433	    -18.35321835	      5.89510501	      3.17087640	      0.10288899	     20.10918920	     16.68569352	     -7.50648018	     18.38803251	     -2.70315181	    -15.08192618	     38.42574807	      0.04556666	      0.67065582	     12.49055477	    -12.29292663	     -7.50648018	    -22.07939605	     -2.93645486	      8.18369768	      5.63507022	    -17.69357839	     -3.00170935	     38.28205764	     90.00000001	      0.00000000	      0.00000000	     -4.56719761	     -9.87240069	    -32.42678041	     34.11471688	     90.00000001	      0.00000000	      0.00000000
      1.34000000	      8.60993307	      1.59015689	     -1.00702514	      0.98452497	      0.83371924	     -0.26278522	    -20.04837673	     -0.95702248	    -18.79338380	      5.56108711	      3.23033223	      0.09705928	     20.44462269	     17.13151255	     -7.50623833	     18.81606461	     -2.83372488	    -15.96584187	     34.24975380	      0.41253897	      0.59777097	     13.00850170	    -10.73321234	     -7.50623833	    -21.88739850	     -2.94289567	      8.93511271	      5.90991778	    -18.14024682	     -2.60989767	     38.60847891	     90.00000001	      0.00000000	      0.00000000	     -5.23671988	    -10.01516217	    -33.79816555	     33.50915965	     90.00000001	      0.00000000	      0.00000000
